<?xml version="1.0" encoding="UTF-8"?><svg id="Layer_1" xmlns="http://www.w3.org/2000/svg" viewBox="0 0 534.19 151.29"><defs><style>.cls-1{fill:#fff;}.cls-2{fill:#05ad32;}</style></defs><g><path class="cls-2" d="m85.38,37.93h-34.29v20.57h27.43v6.86h-27.43v34.29h-13.71V31.07h48v6.86Z"/><path class="cls-2" d="m119.67,58.5h-6.86v6.86h-6.86v34.29h-13.71v-48h27.43v6.86Z"/><path class="cls-2" d="m167.67,92.79h-6.86v6.86h-27.43v-6.86h-6.86v-34.29h6.86v-6.86h27.43v6.86h6.86v34.29Zm-13.71,0v-34.29h-13.71v34.29h13.71Z"/><path class="cls-2" d="m222.53,113.36h-6.86v6.86h-27.43v-6.86h-6.86v-6.86h13.71v6.86h13.71v-13.71h-20.57v-6.86h-6.86v-34.29h6.86v-6.86h34.29v61.71Zm-13.71-20.57v-34.29h-13.71v34.29h13.71Z"/><path class="cls-2" d="m277.38,99.65h-34.29v-6.86h-6.86v-41.14h13.71v41.14h13.71v-41.14h13.71v48Z"/><path class="cls-2" d="m332.24,92.79h-6.86v6.86h-27.43v-6.86h-6.86v-34.29h6.86v-6.86h27.43v6.86h6.86v13.71h-27.43v20.57h13.71v-6.86h13.71v6.86Zm-13.71-27.43v-6.86h-13.71v6.86h13.71Z"/><path class="cls-2" d="m359.67,99.65h-13.71V31.07h13.71v68.57Z"/><path class="cls-2" d="m387.1,44.79h-13.71v-13.71h13.71v13.71Zm0,54.86h-13.71v-48h13.71v48Z"/><path class="cls-2" d="m441.95,99.65h-13.71v-6.86h-6.86v-6.86h-6.86v13.71h-13.71V31.07h13.71v34.29h6.86v-6.86h6.86v-6.86h13.71v6.86h-6.86v6.86h-6.86v6.86h-6.86v6.86h6.86v6.86h6.86v6.86h6.86v6.86Z"/><path class="cls-2" d="m496.81,92.79h-6.86v6.86h-27.43v-6.86h-6.86v-34.29h6.86v-6.86h27.43v6.86h6.86v13.71h-27.43v20.57h13.71v-6.86h13.71v6.86Zm-13.71-27.43v-6.86h-13.71v6.86h13.71Z"/></g><g><path class="cls-1" d="m51.1,107.15h-13.71c-4.14,0-7.5-3.36-7.5-7.5V31.07c0-4.14,3.36-7.5,7.5-7.5h48c4.14,0,7.5,3.36,7.5,7.5v6.86c0,4.14-3.36,7.5-7.5,7.5h-26.79v5.57h19.93c4.14,0,7.5,3.36,7.5,7.5v6.86c0,4.14-3.36,7.5-7.5,7.5h-19.93v26.79c0,4.14-3.36,7.5-7.5,7.5Z"/><path class="cls-1" d="m105.96,107.15h-13.71c-4.14,0-7.5-3.36-7.5-7.5v-48c0-4.14,3.36-7.5,7.5-7.5h27.43c4.14,0,7.5,3.36,7.5,7.5v6.86c0,3.93-3.03,7.16-6.88,7.47-.3,3.64-3.19,6.55-6.83,6.86v26.81c0,4.14-3.36,7.5-7.5,7.5Zm-6.21-48v2.01c.54-.79,1.22-1.48,2.01-2.01h-2.01Z"/><path class="cls-1" d="m160.81,107.15h-27.43c-3.93,0-7.16-3.03-7.48-6.88-3.85-.31-6.88-3.54-6.88-7.47v-34.29c0-3.93,3.03-7.16,6.88-7.47.31-3.85,3.54-6.88,7.48-6.88h27.43c3.93,0,7.16,3.03,7.48,6.88,3.85.31,6.88,3.54,6.88,7.47v34.29c0,3.93-3.03,7.16-6.88,7.47-.31,3.85-3.54,6.88-7.48,6.88Z"/><path class="cls-1" d="m215.67,127.72h-27.43c-3.93,0-7.16-3.03-7.48-6.88-3.85-.31-6.88-3.54-6.88-7.47v-6.86c0-3.06,1.83-5.69,4.46-6.86-2.63-1.17-4.46-3.8-4.46-6.86v-34.29c0-3.93,3.03-7.16,6.88-7.47.31-3.85,3.54-6.88,7.48-6.88h34.29c4.14,0,7.5,3.36,7.5,7.5v61.71c0,3.93-3.03,7.16-6.88,7.47-.31,3.85-3.54,6.88-7.48,6.88Z"/><path class="cls-1" d="m277.38,107.15h-34.29c-3.93,0-7.16-3.03-7.48-6.88-3.85-.31-6.88-3.54-6.88-7.47v-41.14c0-4.14,3.36-7.5,7.5-7.5h13.71c3.06,0,5.69,1.83,6.86,4.46,1.17-2.63,3.8-4.46,6.86-4.46h13.71c4.14,0,7.5,3.36,7.5,7.5v48c0,4.14-3.36,7.5-7.5,7.5Z"/><path class="cls-1" d="m325.38,107.15h-27.43c-3.93,0-7.16-3.03-7.48-6.88-3.85-.31-6.88-3.54-6.88-7.47v-34.29c0-3.93,3.03-7.16,6.88-7.47.31-3.85,3.54-6.88,7.48-6.88h27.43c3.93,0,7.16,3.03,7.48,6.88,3.85.31,6.88,3.54,6.88,7.47v13.71c0,3.06-1.83,5.69-4.46,6.86,2.63,1.17,4.46,3.8,4.46,6.86v6.86c0,3.93-3.03,7.16-6.88,7.47-.31,3.85-3.54,6.88-7.48,6.88Zm-13.07-27.43v2.01c.54-.79,1.22-1.48,2.01-2.01h-2.01Z"/><rect class="cls-1" x="338.45" y="23.57" width="28.71" height="83.57" rx="7.5" ry="7.5"/><path class="cls-1" d="m387.1,107.15h-13.71c-4.14,0-7.5-3.36-7.5-7.5v-48c0-1.24.3-2.4.83-3.43-.53-1.03-.83-2.19-.83-3.43v-13.71c0-4.14,3.36-7.5,7.5-7.5h13.71c4.14,0,7.5,3.36,7.5,7.5v13.71c0,1.24-.3,2.4-.83,3.43.53,1.03.83,2.19.83,3.43v48c0,4.14-3.36,7.5-7.5,7.5Z"/><path class="cls-1" d="m441.95,107.15h-13.71c-3.06,0-5.69-1.83-6.86-4.46-1.17,2.63-3.8,4.46-6.86,4.46h-13.71c-4.14,0-7.5-3.36-7.5-7.5V31.07c0-4.14,3.36-7.5,7.5-7.5h13.71c4.14,0,7.5,3.36,7.5,7.5v16.37c1.35-1.99,3.63-3.3,6.21-3.3h13.71c4.14,0,7.5,3.36,7.5,7.5v6.86c0,3.93-3.03,7.16-6.88,7.47-.3,3.65-3.21,6.56-6.86,6.86-.08,1.01-.36,1.96-.8,2.81.44.85.72,1.8.8,2.81,3.65.3,6.56,3.21,6.86,6.86,3.85.31,6.88,3.54,6.88,7.47v6.86c0,4.14-3.36,7.5-7.5,7.5Zm-33.64-37.58v12.17c1.24-1.82,3.25-3.08,5.57-3.27v-5.63c-2.32-.2-4.34-1.45-5.57-3.27Z"/><path class="cls-1" d="m489.95,107.15h-27.43c-3.93,0-7.16-3.03-7.47-6.88-3.85-.31-6.88-3.54-6.88-7.47v-34.29c0-3.93,3.03-7.16,6.88-7.47.31-3.85,3.54-6.88,7.47-6.88h27.43c3.93,0,7.16,3.03,7.47,6.88,3.85.31,6.88,3.54,6.88,7.47v13.71c0,3.06-1.83,5.69-4.46,6.86,2.63,1.17,4.46,3.8,4.46,6.86v6.86c0,3.93-3.03,7.16-6.88,7.47-.31,3.85-3.54,6.88-7.47,6.88Zm-13.07-27.43v2.01c.54-.79,1.22-1.48,2.01-2.01h-2.01Z"/></g><g><path class="cls-2" d="m85.38,37.93h-34.29v20.57h27.43v6.86h-27.43v34.29h-13.71V31.07h48v6.86Z"/><path class="cls-2" d="m119.67,58.5h-6.86v6.86h-6.86v34.29h-13.71v-48h27.43v6.86Z"/><path class="cls-2" d="m167.67,92.79h-6.86v6.86h-27.43v-6.86h-6.86v-34.29h6.86v-6.86h27.43v6.86h6.86v34.29Zm-13.71,0v-34.29h-13.71v34.29h13.71Z"/><path class="cls-2" d="m222.53,113.36h-6.86v6.86h-27.43v-6.86h-6.86v-6.86h13.71v6.86h13.71v-13.71h-20.57v-6.86h-6.86v-34.29h6.86v-6.86h34.29v61.71Zm-13.71-20.57v-34.29h-13.71v34.29h13.71Z"/><path class="cls-2" d="m277.38,99.65h-34.29v-6.86h-6.86v-41.14h13.71v41.14h13.71v-41.14h13.71v48Z"/><path class="cls-2" d="m332.24,92.79h-6.86v6.86h-27.43v-6.86h-6.86v-34.29h6.86v-6.86h27.43v6.86h6.86v13.71h-27.43v20.57h13.71v-6.86h13.71v6.86Zm-13.71-27.43v-6.86h-13.71v6.86h13.71Z"/><path class="cls-2" d="m359.67,99.65h-13.71V31.07h13.71v68.57Z"/><path class="cls-2" d="m387.1,44.79h-13.71v-13.71h13.71v13.71Zm0,54.86h-13.71v-48h13.71v48Z"/><path class="cls-2" d="m441.95,99.65h-13.71v-6.86h-6.86v-6.86h-6.86v13.71h-13.71V31.07h13.71v34.29h6.86v-6.86h6.86v-6.86h13.71v6.86h-6.86v6.86h-6.86v6.86h-6.86v6.86h6.86v6.86h6.86v6.86h6.86v6.86Z"/><path class="cls-2" d="m496.81,92.79h-6.86v6.86h-27.43v-6.86h-6.86v-34.29h6.86v-6.86h27.43v6.86h6.86v13.71h-27.43v20.57h13.71v-6.86h13.71v6.86Zm-13.71-27.43v-6.86h-13.71v6.86h13.71Z"/></g></svg>