<?xml version="1.0" encoding="UTF-8"?><svg id="Layer_1" xmlns="http://www.w3.org/2000/svg" viewBox="0 0 1280 800"><defs><style>.cls-1{fill:none;stroke:#fff;stroke-linecap:round;stroke-linejoin:round;stroke-width:15px;}.cls-2{fill:#05ad32;}</style></defs><g><path class="cls-2" d="m388.28,438.9h-34.29v20.57h27.43v6.86h-27.43v34.29h-13.71v-68.57h48v6.86Z"/><path class="cls-2" d="m422.56,459.47h-6.86v6.86h-6.86v34.29h-13.71v-48h27.43v6.86Z"/><path class="cls-2" d="m470.56,493.76h-6.86v6.86h-27.43v-6.86h-6.86v-34.29h6.86v-6.86h27.43v6.86h6.86v34.29Zm-13.71,0v-34.29h-13.71v34.29h13.71Z"/><path class="cls-2" d="m525.42,514.33h-6.86v6.86h-27.43v-6.86h-6.86v-6.86h13.71v6.86h13.71v-13.71h-20.57v-6.86h-6.86v-34.29h6.86v-6.86h34.29v61.71Zm-13.71-20.57v-34.29h-13.71v34.29h13.71Z"/><path class="cls-2" d="m580.27,500.61h-34.29v-6.86h-6.86v-41.14h13.71v41.14h13.71v-41.14h13.71v48Z"/><path class="cls-2" d="m635.13,493.76h-6.86v6.86h-27.43v-6.86h-6.86v-34.29h6.86v-6.86h27.43v6.86h6.86v13.71h-27.43v20.57h13.71v-6.86h13.71v6.86Zm-13.71-27.43v-6.86h-13.71v6.86h13.71Z"/><path class="cls-2" d="m662.56,500.61h-13.71v-68.57h13.71v68.57Z"/><path class="cls-2" d="m689.99,445.76h-13.71v-13.71h13.71v13.71Zm0,54.86h-13.71v-48h13.71v48Z"/><path class="cls-2" d="m744.84,500.61h-13.71v-6.86h-6.86v-6.86h-6.86v13.71h-13.71v-68.57h13.71v34.29h6.86v-6.86h6.86v-6.86h13.71v6.86h-6.86v6.86h-6.86v6.86h-6.86v6.86h6.86v6.86h6.86v6.86h6.86v6.86Z"/><path class="cls-2" d="m799.7,493.76h-6.86v6.86h-27.43v-6.86h-6.86v-34.29h6.86v-6.86h27.43v6.86h6.86v13.71h-27.43v20.57h13.71v-6.86h13.71v6.86Zm-13.71-27.43v-6.86h-13.71v6.86h13.71Z"/></g><g><path class="cls-1" d="m388.28,438.9h-34.29v20.57h27.43v6.86h-27.43v34.29h-13.71v-68.57h48v6.86Z"/><path class="cls-1" d="m422.56,459.47h-6.86v6.86h-6.86v34.29h-13.71v-48h27.43v6.86Z"/><path class="cls-1" d="m470.56,493.76h-6.86v6.86h-27.43v-6.86h-6.86v-34.29h6.86v-6.86h27.43v6.86h6.86v34.29Zm-13.71,0v-34.29h-13.71v34.29h13.71Z"/><path class="cls-1" d="m525.42,514.33h-6.86v6.86h-27.43v-6.86h-6.86v-6.86h13.71v6.86h13.71v-13.71h-20.57v-6.86h-6.86v-34.29h6.86v-6.86h34.29v61.71Zm-13.71-20.57v-34.29h-13.71v34.29h13.71Z"/><path class="cls-1" d="m580.27,500.61h-34.29v-6.86h-6.86v-41.14h13.71v41.14h13.71v-41.14h13.71v48Z"/><path class="cls-1" d="m635.13,493.76h-6.86v6.86h-27.43v-6.86h-6.86v-34.29h6.86v-6.86h27.43v6.86h6.86v13.71h-27.43v20.57h13.71v-6.86h13.71v6.86Zm-13.71-27.43v-6.86h-13.71v6.86h13.71Z"/><path class="cls-1" d="m662.56,500.61h-13.71v-68.57h13.71v68.57Z"/><path class="cls-1" d="m689.99,445.76h-13.71v-13.71h13.71v13.71Zm0,54.86h-13.71v-48h13.71v48Z"/><path class="cls-1" d="m744.84,500.61h-13.71v-6.86h-6.86v-6.86h-6.86v13.71h-13.71v-68.57h13.71v34.29h6.86v-6.86h6.86v-6.86h13.71v6.86h-6.86v6.86h-6.86v6.86h-6.86v6.86h6.86v6.86h6.86v6.86h6.86v6.86Z"/><path class="cls-1" d="m799.7,493.76h-6.86v6.86h-27.43v-6.86h-6.86v-34.29h6.86v-6.86h27.43v6.86h6.86v13.71h-27.43v20.57h13.71v-6.86h13.71v6.86Zm-13.71-27.43v-6.86h-13.71v6.86h13.71Z"/></g><g><path class="cls-2" d="m388.28,438.9h-34.29v20.57h27.43v6.86h-27.43v34.29h-13.71v-68.57h48v6.86Z"/><path class="cls-2" d="m422.56,459.47h-6.86v6.86h-6.86v34.29h-13.71v-48h27.43v6.86Z"/><path class="cls-2" d="m470.56,493.76h-6.86v6.86h-27.43v-6.86h-6.86v-34.29h6.86v-6.86h27.43v6.86h6.86v34.29Zm-13.71,0v-34.29h-13.71v34.29h13.71Z"/><path class="cls-2" d="m525.42,514.33h-6.86v6.86h-27.43v-6.86h-6.86v-6.86h13.71v6.86h13.71v-13.71h-20.57v-6.86h-6.86v-34.29h6.86v-6.86h34.29v61.71Zm-13.71-20.57v-34.29h-13.71v34.29h13.71Z"/><path class="cls-2" d="m580.27,500.61h-34.29v-6.86h-6.86v-41.14h13.71v41.14h13.71v-41.14h13.71v48Z"/><path class="cls-2" d="m635.13,493.76h-6.86v6.86h-27.43v-6.86h-6.86v-34.29h6.86v-6.86h27.43v6.86h6.86v13.71h-27.43v20.57h13.71v-6.86h13.71v6.86Zm-13.71-27.43v-6.86h-13.71v6.86h13.71Z"/><path class="cls-2" d="m662.56,500.61h-13.71v-68.57h13.71v68.57Z"/><path class="cls-2" d="m689.99,445.76h-13.71v-13.71h13.71v13.71Zm0,54.86h-13.71v-48h13.71v48Z"/><path class="cls-2" d="m744.84,500.61h-13.71v-6.86h-6.86v-6.86h-6.86v13.71h-13.71v-68.57h13.71v34.29h6.86v-6.86h6.86v-6.86h13.71v6.86h-6.86v6.86h-6.86v6.86h-6.86v6.86h6.86v6.86h6.86v6.86h6.86v6.86Z"/><path class="cls-2" d="m799.7,493.76h-6.86v6.86h-27.43v-6.86h-6.86v-34.29h6.86v-6.86h27.43v6.86h6.86v13.71h-27.43v20.57h13.71v-6.86h13.71v6.86Zm-13.71-27.43v-6.86h-13.71v6.86h13.71Z"/></g></svg>