<?xml version="1.0" encoding="UTF-8"?><svg id="Layer_2" xmlns="http://www.w3.org/2000/svg" viewBox="0 0 448.85 104.53"><defs><style>.cls-1{fill:none;stroke:#fff;stroke-linecap:round;stroke-linejoin:round;stroke-width:15px;}.cls-2{fill:#05ad32;}</style></defs><g id="Layer_2-2"><path class="cls-2" d="m55.71,14.39H21.27v20.66h27.55v6.89h-27.55v34.43H7.5V7.5h48.21v6.89Z"/><path class="cls-2" d="m90.14,35.05h-6.89v6.89h-6.89v34.43h-13.77V28.16h27.55v6.89Z"/><path class="cls-2" d="m138.34,69.48h-6.89v6.89h-27.55v-6.89h-6.89v-34.43h6.89v-6.89h27.55v6.89h6.89v34.43Zm-13.77,0v-34.43h-13.77v34.43h13.77Z"/><path class="cls-2" d="m193.44,90.14h-6.89v6.89h-27.55v-6.89h-6.89v-6.89h13.77v6.89h13.77v-13.77h-20.66v-6.89h-6.89v-34.43h6.89v-6.89h34.43v61.98Zm-13.77-20.66v-34.43h-13.77v34.43h13.77Z"/><path class="cls-2" d="m248.53,76.37h-34.43v-6.89h-6.89V28.16h13.77v41.32h13.77V28.16h13.77v48.21Z"/><path class="cls-2" d="m303.62,69.48h-6.89v6.89h-27.55v-6.89h-6.89v-34.43h6.89v-6.89h27.55v6.89h6.89v13.77h-27.55v20.66h13.77v-6.89h13.77v6.89Zm-13.77-27.55v-6.89h-13.77v6.89h13.77Z"/><path class="cls-2" d="m331.17,76.37h-13.77V7.5h13.77v68.87Z"/><path class="cls-2" d="m358.71,21.27h-13.77V7.5h13.77v13.77Zm0,55.09h-13.77V28.16h13.77v48.21Z"/><path class="cls-2" d="m393.14,76.37h-13.77v-6.89h-6.89v-34.43h-6.89v-6.89h6.89v-13.77h13.77v13.77h6.89v6.89h-6.89v34.43h6.89v6.89Z"/><path class="cls-2" d="m441.35,69.48h-6.89v6.89h-27.55v-6.89h-6.89v-34.43h6.89v-6.89h27.55v6.89h6.89v13.77h-27.55v20.66h13.77v-6.89h13.77v6.89Zm-13.77-27.55v-6.89h-13.77v6.89h13.77Z"/><path class="cls-1" d="m55.71,14.39H21.27v20.66h27.55v6.89h-27.55v34.43H7.5V7.5h48.21v6.89Z"/><path class="cls-1" d="m90.14,35.05h-6.89v6.89h-6.89v34.43h-13.77V28.16h27.55v6.89Z"/><path class="cls-1" d="m138.34,69.48h-6.89v6.89h-27.55v-6.89h-6.89v-34.43h6.89v-6.89h27.55v6.89h6.89v34.43Zm-13.77,0v-34.43h-13.77v34.43h13.77Z"/><path class="cls-1" d="m193.44,90.14h-6.89v6.89h-27.55v-6.89h-6.89v-6.89h13.77v6.89h13.77v-13.77h-20.66v-6.89h-6.89v-34.43h6.89v-6.89h34.43v61.98Zm-13.77-20.66v-34.43h-13.77v34.43h13.77Z"/><path class="cls-1" d="m248.53,76.37h-34.43v-6.89h-6.89V28.16h13.77v41.32h13.77V28.16h13.77v48.21Z"/><path class="cls-1" d="m303.62,69.48h-6.89v6.89h-27.55v-6.89h-6.89v-34.43h6.89v-6.89h27.55v6.89h6.89v13.77h-27.55v20.66h13.77v-6.89h13.77v6.89Zm-13.77-27.55v-6.89h-13.77v6.89h13.77Z"/><path class="cls-1" d="m331.17,76.37h-13.77V7.5h13.77v68.87Z"/><path class="cls-1" d="m358.71,21.27h-13.77V7.5h13.77v13.77Zm0,55.09h-13.77V28.16h13.77v48.21Z"/><path class="cls-1" d="m393.14,76.37h-13.77v-6.89h-6.89v-34.43h-6.89v-6.89h6.89v-13.77h13.77v13.77h6.89v6.89h-6.89v34.43h6.89v6.89Z"/><path class="cls-1" d="m441.35,69.48h-6.89v6.89h-27.55v-6.89h-6.89v-34.43h6.89v-6.89h27.55v6.89h6.89v13.77h-27.55v20.66h13.77v-6.89h13.77v6.89Zm-13.77-27.55v-6.89h-13.77v6.89h13.77Z"/><path class="cls-2" d="m55.71,14.39H21.27v20.66h27.55v6.89h-27.55v34.43H7.5V7.5h48.21v6.89Z"/><path class="cls-2" d="m90.14,35.05h-6.89v6.89h-6.89v34.43h-13.77V28.16h27.55v6.89Z"/><path class="cls-2" d="m138.34,69.48h-6.89v6.89h-27.55v-6.89h-6.89v-34.43h6.89v-6.89h27.55v6.89h6.89v34.43Zm-13.77,0v-34.43h-13.77v34.43h13.77Z"/><path class="cls-2" d="m193.44,90.14h-6.89v6.89h-27.55v-6.89h-6.89v-6.89h13.77v6.89h13.77v-13.77h-20.66v-6.89h-6.89v-34.43h6.89v-6.89h34.43v61.98Zm-13.77-20.66v-34.43h-13.77v34.43h13.77Z"/><path class="cls-2" d="m248.53,76.37h-34.43v-6.89h-6.89V28.16h13.77v41.32h13.77V28.16h13.77v48.21Z"/><path class="cls-2" d="m303.62,69.48h-6.89v6.89h-27.55v-6.89h-6.89v-34.43h6.89v-6.89h27.55v6.89h6.89v13.77h-27.55v20.66h13.77v-6.89h13.77v6.89Zm-13.77-27.55v-6.89h-13.77v6.89h13.77Z"/><path class="cls-2" d="m331.17,76.37h-13.77V7.5h13.77v68.87Z"/><path class="cls-2" d="m358.71,21.27h-13.77V7.5h13.77v13.77Zm0,55.09h-13.77V28.16h13.77v48.21Z"/><path class="cls-2" d="m393.14,76.37h-13.77v-6.89h-6.89v-34.43h-6.89v-6.89h6.89v-13.77h13.77v13.77h6.89v6.89h-6.89v34.43h6.89v6.89Z"/><path class="cls-2" d="m441.35,69.48h-6.89v6.89h-27.55v-6.89h-6.89v-34.43h6.89v-6.89h27.55v6.89h6.89v13.77h-27.55v20.66h13.77v-6.89h13.77v6.89Zm-13.77-27.55v-6.89h-13.77v6.89h13.77Z"/></g></svg>